<svg width="80" height="80" viewBox="0 0 80 80" fill="none" xmlns="http://www.w3.org/2000/svg">
<rect width="80" height="80" rx="40" fill="#EADFD8"/>
<path d="M58.7647 32.5451H55.0502L54.2976 41.1873H58.7643C61.4123 41.1873 62.6066 42.5592 63.8709 44.012C65.0692 45.3887 66.4273 46.9491 68.9972 46.9491H69.787L69.8573 46.1655C69.9442 45.1539 70 44.3021 70 43.7805C70.0001 37.5852 64.9599 32.5451 58.7647 32.5451Z" fill="#D90429"/>
<path d="M56.1725 19.6117C56.1724 19.6001 56.1714 19.5887 56.1707 19.577C56.1699 19.5596 56.1693 19.5421 56.1674 19.5251C56.166 19.5127 56.1638 19.5008 56.1618 19.4885C56.1593 19.4723 56.1572 19.4562 56.1539 19.4403C56.1512 19.428 56.1475 19.4161 56.1444 19.4041C56.1405 19.3888 56.1369 19.3733 56.1321 19.3584C56.1281 19.3458 56.123 19.3336 56.1184 19.3211C56.1133 19.3074 56.1086 19.2936 56.1028 19.2802C56.0968 19.2661 56.0897 19.2528 56.0829 19.2392C56.0775 19.228 56.0724 19.2166 56.0664 19.2058C56.0574 19.1892 56.0472 19.1734 56.037 19.1575C56.0324 19.1502 56.0284 19.1428 56.0235 19.1358C56.0104 19.1163 55.996 19.0977 55.9812 19.0793C55.9788 19.0765 55.9769 19.0732 55.9743 19.0704C55.905 18.9864 55.8198 18.9157 55.723 18.8627C55.7217 18.862 55.7207 18.8612 55.7196 18.8605C55.6995 18.8497 55.6789 18.8401 55.6579 18.8309C55.6527 18.8285 55.6478 18.8258 55.6426 18.8236C55.6255 18.8165 55.6078 18.8106 55.5901 18.8045C55.5805 18.8012 55.571 18.7972 55.5612 18.7943C55.5469 18.79 55.5321 18.7868 55.5174 18.783C55.5039 18.7796 55.4905 18.7757 55.4765 18.7731C55.4635 18.7705 55.45 18.769 55.4366 18.7669C55.4211 18.7645 55.4058 18.762 55.3899 18.7604C55.3876 18.7601 55.3855 18.7597 55.3832 18.7595C55.3688 18.7582 55.3546 18.7584 55.3404 18.7578C55.3297 18.7575 55.3192 18.7562 55.3085 18.7562H55.2968C55.2959 18.7562 55.295 18.7562 55.2941 18.7562H43.0351H37.6204H23.7922C23.7918 18.7562 23.7914 18.7562 23.791 18.7562C23.385 18.7562 23.0328 19.0419 22.9477 19.4381C22.9471 19.441 22.9461 19.4438 22.9455 19.4466C22.9411 19.4683 22.9382 19.4903 22.9353 19.5123C22.9345 19.5193 22.933 19.526 22.9323 19.533C22.9322 19.5344 22.9319 19.5357 22.9318 19.5371L20.3681 45.9953C20.368 45.9961 20.368 45.9968 20.3679 45.9976L20.3595 46.0849L20.3636 46.0871C20.3649 46.5633 20.7512 46.949 21.2278 46.949H53.0033C53.0038 46.949 53.0042 46.9491 53.0046 46.9491C53.0335 46.9491 53.0622 46.9474 53.0906 46.9446C53.0959 46.9442 53.1011 46.943 53.1064 46.9423C53.129 46.9397 53.1514 46.9365 53.1735 46.9321C53.1831 46.9301 53.1925 46.9275 53.2019 46.9252C53.2192 46.9211 53.2365 46.9171 53.2533 46.912C53.2648 46.9086 53.2758 46.9044 53.2869 46.9004C53.3015 46.8953 53.316 46.8904 53.33 46.8846C53.342 46.8796 53.3538 46.8741 53.3655 46.8686C53.3783 46.8627 53.3911 46.8568 53.4034 46.8504C53.4153 46.8442 53.4267 46.8375 53.4384 46.8308C53.4502 46.8238 53.462 46.8168 53.4735 46.8094C53.4847 46.8021 53.4953 46.7946 53.506 46.7869C53.5174 46.7788 53.5285 46.7705 53.5395 46.7619C53.5494 46.754 53.5592 46.7457 53.5689 46.7373C53.5799 46.7279 53.5906 46.7182 53.601 46.7082C53.6097 46.6998 53.6185 46.6911 53.627 46.6822C53.6374 46.6714 53.6474 46.6604 53.6573 46.6489C53.665 46.64 53.6726 46.631 53.68 46.6217C53.6896 46.6096 53.6987 46.5972 53.7077 46.5846C53.7145 46.5753 53.721 46.5659 53.7275 46.5562C53.7359 46.5432 53.744 46.5298 53.7517 46.5162C53.7576 46.5059 53.7636 46.4959 53.7689 46.4854C53.7761 46.4719 53.7823 46.458 53.7889 46.4441C53.794 46.4329 53.7992 46.4219 53.8038 46.4105C53.8094 46.3969 53.8141 46.383 53.8191 46.369C53.8234 46.3567 53.8279 46.3443 53.8317 46.3317C53.8355 46.3185 53.8386 46.3047 53.842 46.291C53.8454 46.2773 53.8491 46.2637 53.8517 46.2498C53.8544 46.2363 53.856 46.2223 53.858 46.2086C53.86 46.1943 53.8625 46.1803 53.8639 46.1658C53.8642 46.1637 53.8646 46.1617 53.8647 46.1597L56.1683 19.7108C56.1685 19.7085 56.1686 19.7063 56.1688 19.704L56.1697 19.6953C56.1703 19.6877 56.17 19.6804 56.1705 19.673C56.1716 19.6555 56.1731 19.6381 56.1731 19.6204C56.173 19.6175 56.1725 19.6146 56.1725 19.6117Z" fill="#8D99AE"/>
<path d="M58.7645 41.1873C59.0474 41.1873 59.3129 41.2038 59.5644 41.2336L60.3117 32.652C59.8057 32.5821 59.2896 32.545 58.7648 32.545H58.5859L57.8333 41.1871H58.7645V41.1873Z" fill="white"/>
<path d="M28.4001 40.0351H18.0294C17.552 40.0351 17.1652 39.6483 17.1652 39.1708C17.1652 38.6935 17.552 38.3066 18.0294 38.3066H28.4001C28.8775 38.3066 29.2644 38.6935 29.2644 39.1708C29.2644 39.6483 28.8775 40.0351 28.4001 40.0351Z" fill="#D90429"/>
<path d="M19.1814 34.2737H14.9562C14.4788 34.2737 14.0919 33.8868 14.0919 33.4094C14.0919 32.9321 14.4788 32.5452 14.9562 32.5452H19.1814C19.6588 32.5452 20.0456 32.9321 20.0456 33.4094C20.0456 33.8868 19.6588 34.2737 19.1814 34.2737Z" fill="#D90429"/>
<path d="M33.011 27.3598H11.8643C11.3868 27.3598 11 26.973 11 26.4955C11 26.0182 11.3868 25.6313 11.8643 25.6313H33.011C33.4884 25.6313 33.8753 26.0182 33.8753 26.4955C33.8753 26.973 33.4883 27.3598 33.011 27.3598Z" fill="#D90429"/>
<path d="M69.8565 46.1757L69.7887 46.9296C69.8129 46.6711 69.8355 46.4192 69.8565 46.1768C69.8565 46.177 69.8563 46.1771 69.8563 46.1773C69.8565 46.1768 69.8565 46.1762 69.8565 46.1757Z" fill="white"/>
<path d="M68.9974 46.9491C66.4274 46.9491 65.0692 45.3887 63.871 44.012C62.6067 42.5594 61.4125 41.1873 58.7645 41.1873H54.2978L53.8646 46.1596C53.8645 46.1617 53.864 46.1637 53.8638 46.1657C53.8624 46.1803 53.86 46.1943 53.8579 46.2086C53.8558 46.2223 53.8543 46.2363 53.8516 46.2498C53.8489 46.2637 53.8452 46.2773 53.8419 46.291C53.8386 46.3046 53.8353 46.3183 53.8315 46.3317C53.8277 46.3442 53.8232 46.3567 53.819 46.369C53.814 46.383 53.8093 46.3969 53.8036 46.4105C53.799 46.4219 53.7938 46.4329 53.7888 46.444C53.7822 46.458 53.776 46.4719 53.7687 46.4854C53.7633 46.4959 53.7573 46.5059 53.7515 46.5162C53.7438 46.5297 53.7358 46.543 53.7274 46.5562C53.7209 46.5658 53.7143 46.5753 53.7075 46.5846C53.6985 46.5972 53.6894 46.6097 53.6799 46.6217C53.6725 46.631 53.6649 46.6399 53.6572 46.6489C53.6473 46.6603 53.6372 46.6714 53.6269 46.6822C53.6185 46.6911 53.6097 46.6996 53.6008 46.7082C53.5903 46.7182 53.5796 46.7279 53.5688 46.7373C53.5591 46.7457 53.5493 46.754 53.5394 46.7619C53.5283 46.7705 53.5173 46.7787 53.5059 46.7869C53.4952 46.7946 53.4844 46.8022 53.4734 46.8093C53.4618 46.8167 53.4501 46.8237 53.4382 46.8308C53.4266 46.8375 53.4152 46.8441 53.4033 46.8504C53.391 46.8569 53.3782 46.8627 53.3654 46.8686C53.3536 46.8741 53.342 46.8796 53.3299 46.8846C53.3158 46.8903 53.3013 46.8953 53.2868 46.9004C53.2756 46.9043 53.2647 46.9084 53.2532 46.912C53.2363 46.9171 53.219 46.9211 53.2018 46.9251C53.1923 46.9275 53.183 46.9301 53.1734 46.9321C53.1513 46.9364 53.1288 46.9396 53.1062 46.9423C53.1009 46.943 53.0957 46.9442 53.0904 46.9446C53.0621 46.9474 53.0334 46.9491 53.0045 46.9491C53.004 46.9491 53.0037 46.949 53.0032 46.949H21.2278C20.7512 46.949 20.3649 46.5632 20.3636 46.087L20.3595 46.0849L19.4749 55.2142C19.4748 55.2153 19.4747 55.2163 19.4746 55.2173L19.4742 55.2206C19.4731 55.2325 19.4732 55.2444 19.4725 55.2564C19.4717 55.2723 19.4701 55.2879 19.4701 55.304C19.4701 55.3048 19.4702 55.3055 19.4702 55.3061C19.4702 55.3283 19.4718 55.3502 19.4734 55.3721C19.4741 55.379 19.4739 55.3863 19.4747 55.3932C19.477 55.4157 19.4808 55.4375 19.4848 55.4594C19.486 55.4659 19.4866 55.4723 19.4878 55.4788C19.4912 55.4954 19.4959 55.5114 19.5003 55.5277C19.5033 55.5391 19.5057 55.5507 19.5092 55.5619C19.5102 55.565 19.5116 55.5681 19.5125 55.5712C19.5543 55.6997 19.6253 55.8152 19.718 55.9095C19.7197 55.9113 19.7211 55.9131 19.7228 55.9148C19.732 55.9241 19.742 55.9323 19.7517 55.9412C19.8113 55.9959 19.8786 56.0422 19.9522 56.0784C19.9676 56.086 19.9827 56.0939 19.9983 56.1006C20.0031 56.1027 20.0081 56.104 20.013 56.1059C20.0346 56.1146 20.0564 56.1228 20.0789 56.1299C20.081 56.1305 20.0829 56.1308 20.085 56.1315C20.1106 56.1391 20.1364 56.1459 20.1628 56.1512C20.1662 56.1519 20.1698 56.1521 20.1731 56.1528C20.1983 56.1575 20.2235 56.1615 20.2492 56.1641C20.2498 56.1642 20.2502 56.1642 20.2508 56.1643C20.2792 56.1671 20.3073 56.1685 20.3352 56.1685C20.3355 56.1685 20.336 56.1684 20.3364 56.1684H23.6468H24.9895H63.3738H64.7375H67.9825C67.9831 56.1684 67.9837 56.1685 67.9843 56.1685C68.0131 56.1685 68.0415 56.1668 68.0696 56.164C68.0747 56.1635 68.0795 56.1625 68.0846 56.1619C68.1071 56.1593 68.1294 56.156 68.1513 56.1517C68.1607 56.1497 68.1699 56.1473 68.1792 56.1451C68.1962 56.1412 68.2132 56.1371 68.2299 56.1321C68.2412 56.1288 68.2521 56.1248 68.2632 56.121C68.2774 56.1162 68.2915 56.1111 68.3055 56.1054C68.3175 56.1007 68.3289 56.0955 68.3405 56.0902C68.3532 56.0844 68.3659 56.0785 68.3782 56.072C68.39 56.0662 68.4012 56.0599 68.4125 56.0534C68.4244 56.0466 68.4362 56.0394 68.4478 56.0319C68.4586 56.0249 68.4695 56.018 68.4798 56.0105C68.4916 56.0024 68.5028 55.9937 68.5142 55.9849C68.5236 55.9774 68.5332 55.97 68.5424 55.9622C68.5543 55.9522 68.5655 55.9416 68.5767 55.931C68.5846 55.9236 68.5928 55.9161 68.6004 55.9083C68.6125 55.8962 68.6238 55.8832 68.6352 55.8701C68.6413 55.8631 68.6476 55.8563 68.6535 55.8491C68.6661 55.8337 68.6777 55.8177 68.6891 55.8013C68.693 55.7957 68.6974 55.7904 68.7012 55.7846C68.7153 55.7637 68.7285 55.7419 68.7407 55.7196C68.7416 55.7183 68.7426 55.717 68.7433 55.7155C68.7563 55.6915 68.7683 55.667 68.7789 55.6415C68.7819 55.6343 68.7842 55.6269 68.787 55.6196C68.7941 55.6018 68.801 55.5839 68.8069 55.5653C68.8107 55.5534 68.8134 55.5411 68.8168 55.529C68.8206 55.5146 68.8246 55.5004 68.8278 55.4856C68.8307 55.4726 68.8326 55.4593 68.8349 55.446C68.8368 55.4342 68.8394 55.4229 68.8409 55.411C68.875 55.1383 69.4618 50.4311 69.7869 46.949L68.9974 46.9491Z" fill="white"/>
<path d="M68.9974 46.9491C67.9533 46.9491 67.1093 46.6917 66.3947 46.2936C66.0695 49.7755 65.4178 55.1384 65.3838 55.4112C65.3823 55.4231 65.3797 55.4344 65.3778 55.4461C65.3755 55.4594 65.3737 55.4726 65.3707 55.4857C65.3676 55.5005 65.3635 55.5148 65.3597 55.5292C65.3563 55.5413 65.3536 55.5536 65.3498 55.5655C65.3439 55.584 65.337 55.6018 65.3299 55.6198C65.3271 55.627 65.3248 55.6345 65.3218 55.6417C65.311 55.6671 65.2992 55.6917 65.286 55.7156C65.2854 55.7171 65.2844 55.7184 65.2836 55.7198C65.2715 55.742 65.2582 55.7639 65.2441 55.7848C65.2403 55.7905 65.2359 55.7958 65.232 55.8015C65.2205 55.8179 65.209 55.8339 65.1963 55.8492C65.1904 55.8565 65.1841 55.8633 65.178 55.8703C65.1665 55.8833 65.1553 55.8963 65.1432 55.9084C65.1355 55.9163 65.1274 55.9238 65.1195 55.9311C65.1082 55.9417 65.0971 55.9523 65.0852 55.9624C65.076 55.9702 65.0664 55.9776 65.057 55.9851C65.0455 55.9938 65.0344 56.0025 65.0226 56.0106C65.0121 56.018 65.0013 56.025 64.9906 56.0321C64.9789 56.0395 64.9673 56.0467 64.9553 56.0535C64.944 56.0601 64.9327 56.0663 64.921 56.0722C64.9085 56.0787 64.896 56.0845 64.8833 56.0904C64.8717 56.0957 64.8602 56.1009 64.8483 56.1056C64.8343 56.1112 64.8201 56.1163 64.806 56.1212C64.7949 56.125 64.784 56.1289 64.7727 56.1322C64.756 56.1373 64.739 56.1413 64.7221 56.1452C64.7128 56.1474 64.7036 56.1498 64.6942 56.1518C64.6723 56.1562 64.6499 56.1594 64.6275 56.1621C64.6224 56.1626 64.6176 56.1637 64.6125 56.1641C64.5851 56.1668 64.5575 56.1684 64.5293 56.1685H64.7378H67.9828C67.9833 56.1685 67.984 56.1686 67.9846 56.1686C68.0134 56.1686 68.0418 56.1669 68.0699 56.1641C68.075 56.1637 68.0798 56.1626 68.0849 56.1621C68.1073 56.1594 68.1297 56.1562 68.1516 56.1518C68.161 56.1498 68.1701 56.1474 68.1795 56.1452C68.1965 56.1413 68.2135 56.1373 68.2302 56.1322C68.2415 56.129 68.2524 56.125 68.2635 56.1212C68.2777 56.1163 68.2918 56.1112 68.3058 56.1056C68.3178 56.1009 68.3292 56.0957 68.3408 56.0904C68.3535 56.0845 68.3662 56.0786 68.3785 56.0722C68.3902 56.0663 68.4015 56.0601 68.4128 56.0535C68.4247 56.0467 68.4364 56.0396 68.4481 56.0321C68.4589 56.025 68.4698 56.0181 68.4801 56.0106C68.4919 56.0026 68.5031 55.9938 68.5145 55.9851C68.5239 55.9776 68.5335 55.9702 68.5427 55.9624C68.5546 55.9523 68.5657 55.9417 68.577 55.9311C68.5849 55.9238 68.5931 55.9163 68.6007 55.9084C68.6128 55.8963 68.6241 55.8833 68.6355 55.8703C68.6416 55.8633 68.6479 55.8565 68.6538 55.8492C68.6663 55.8339 68.678 55.8179 68.6894 55.8015C68.6933 55.7958 68.6977 55.7905 68.7015 55.7848C68.7155 55.7638 68.7288 55.742 68.741 55.7198C68.7419 55.7184 68.7429 55.7171 68.7435 55.7156C68.7566 55.6917 68.7686 55.6671 68.7792 55.6417C68.7822 55.6344 68.7845 55.627 68.7873 55.6198C68.7944 55.6019 68.8013 55.584 68.8072 55.5655C68.811 55.5535 68.8137 55.5413 68.8171 55.5292C68.8209 55.5148 68.8249 55.5005 68.8281 55.4857C68.831 55.4727 68.8329 55.4595 68.8352 55.4461C68.8371 55.4344 68.8397 55.4231 68.8412 55.4112C68.8753 55.1384 69.462 50.4312 69.7872 46.9491H68.9974Z" fill="white"/>
<path d="M30.7061 61.0654C27.5291 61.0654 24.9445 58.4806 24.9445 55.3036C24.9445 52.1267 27.5291 49.5419 30.7061 49.5419C33.8832 49.5419 36.4679 52.1267 36.4679 55.3036C36.4679 58.4806 33.8832 61.0654 30.7061 61.0654Z" fill="#8D99AE"/>
<path d="M30.7058 57.6084C29.435 57.6084 28.4011 56.5745 28.4011 55.3037C28.4011 54.0328 29.435 52.999 30.7058 52.999C31.9766 52.999 33.0105 54.0328 33.0105 55.3037C33.0105 56.5744 31.9766 57.6084 30.7058 57.6084Z" fill="white"/>
<path d="M57.6122 61.0654C54.4352 61.0654 51.8506 58.4806 51.8506 55.3036C51.8506 52.1267 54.4352 49.5419 57.6122 49.5419C60.7894 49.5419 63.3741 52.1267 63.3741 55.3036C63.3741 58.4806 60.7894 61.0654 57.6122 61.0654Z" fill="#8D99AE"/>
<path d="M57.6124 57.6084C56.3416 57.6084 55.3077 56.5745 55.3077 55.3037C55.3077 54.0328 56.3416 52.999 57.6124 52.999C58.8832 52.999 59.9171 54.0328 59.9171 55.3037C59.9171 56.5744 58.8832 57.6084 57.6124 57.6084Z" fill="white"/>
</svg>
