<svg width="80" height="80" viewBox="0 0 80 80" fill="none" xmlns="http://www.w3.org/2000/svg">
<rect width="80" height="80" rx="40" fill="#EADFD8"/>
<path d="M68.2853 36.1938C68.2365 35.7298 67.9978 35.3067 67.6261 35.0251L63.0876 31.5873L64.7389 26.1387C64.8742 25.6922 64.8187 25.2097 64.5854 24.8057C64.3522 24.4018 63.9621 24.1124 63.5078 24.0063L57.9633 22.7117L57.2555 17.0625C57.1975 16.5997 56.9505 16.1814 56.5731 15.9072C56.1959 15.6329 55.7219 15.5271 55.2635 15.6151L49.672 16.6877L46.7272 11.8147C46.4859 11.4155 46.0902 11.1339 45.6338 11.037C45.1775 10.9398 44.7015 11.0361 44.3187 11.3027L39.6471 14.5568L34.9753 11.3028C34.5926 11.0364 34.1165 10.9403 33.6601 11.0371C33.2038 11.134 32.8082 11.4155 32.5669 11.8149L29.6225 16.6878L24.0311 15.6154C23.5729 15.5276 23.0989 15.6332 22.7215 15.9074C22.3441 16.1817 22.0969 16.5998 22.0391 17.0627L21.3313 22.7119L15.7867 24.0065C15.3324 24.1126 14.9424 24.402 14.7091 24.806C14.4758 25.21 14.4203 25.6925 14.5555 26.1388L16.2066 31.5875L11.6684 35.0252C11.2966 35.3068 11.058 35.7299 11.0092 36.1938C10.9605 36.6577 11.1059 37.1211 11.4112 37.474L15.1354 41.7801L12.3878 46.7665C12.1627 47.1751 12.1166 47.6586 12.2609 48.1023C12.405 48.5458 12.7264 48.91 13.1487 49.1082L18.3025 51.5271L17.8203 57.2001C17.7808 57.665 17.9355 58.1254 18.2477 58.4721C18.5598 58.8188 19.0016 59.0207 19.4679 59.0301L25.1604 59.1435L27.027 64.522C27.18 64.9627 27.5084 65.3206 27.9347 65.5103C28.3608 65.7002 28.8466 65.7048 29.2764 65.5237L34.5231 63.3122L38.4162 67.4664C38.7352 67.8069 39.1809 68 39.6474 68C40.1138 68 40.5595 67.8069 40.8785 67.4664L44.7716 63.3122L50.0179 65.5237C50.4478 65.7046 50.9333 65.6998 51.3596 65.5103C51.7858 65.3206 52.1145 64.9629 52.2673 64.5222L54.1343 59.1435L59.8265 59.0301C60.293 59.0208 60.7346 58.8188 61.0468 58.4721C61.3589 58.1254 61.5137 57.6651 61.4742 57.2001L60.992 51.5271L66.146 49.1082C66.5684 48.91 66.8897 48.5458 67.0341 48.1022C67.1782 47.6587 67.1322 47.1751 66.9071 46.7664L64.1591 41.7801L67.8835 37.474C68.1884 37.1211 68.3338 36.6576 68.2853 36.1938Z" fill="#8D99AE"/>
<path d="M39.5413 21.3068C29.4863 21.3068 21.3061 29.4871 21.3061 39.542C21.3061 49.5969 29.4864 57.7771 39.5413 57.7771C49.5962 57.7771 57.7764 49.5967 57.7764 39.5419C57.7764 29.487 49.5961 21.3068 39.5413 21.3068Z" fill="white"/>
<path d="M37.4521 45.2684C36.9632 45.2684 36.4743 45.0818 36.1015 44.709L32.0096 40.6172C31.2638 39.8714 31.2638 38.662 32.0096 37.9159C32.7554 37.1702 33.9648 37.1699 34.7108 37.9159L37.4521 40.6571L44.285 33.8243C45.0308 33.0785 46.2402 33.0782 46.9862 33.8243C47.7321 34.57 47.7321 35.7796 46.9862 36.5255L38.8026 44.709C38.4298 45.0818 37.9409 45.2684 37.4521 45.2684Z" fill="#D90429"/>
<path d="M46.9866 33.8242C46.2407 33.0782 45.0312 33.0784 44.2853 33.8242L39.4982 38.6114V44.0137L46.9866 36.5254C47.7324 35.7794 47.7324 34.57 46.9866 33.8242Z" fill="#D90429"/>
</svg>
