<svg width="32" height="33" viewBox="0 0 32 33" fill="none" xmlns="http://www.w3.org/2000/svg">
<path opacity="0.1" fill-rule="evenodd" clip-rule="evenodd" d="M0 16.6816C0 7.84509 7.16344 0.681641 16 0.681641C24.8366 0.681641 32 7.84509 32 16.6816C32 25.5182 24.8366 32.6816 16 32.6816C7.16344 32.6816 0 25.5182 0 16.6816Z" fill="white"/>
<path fill-rule="evenodd" clip-rule="evenodd" d="M16.0008 8.14844C13.6833 8.14844 13.3924 8.15857 12.4822 8.19999C11.5737 8.24159 10.9536 8.38542 10.4111 8.59644C9.8498 8.8144 9.37371 9.10596 8.89939 9.58045C8.42472 10.0548 8.13316 10.5309 7.91449 11.0919C7.70294 11.6347 7.55893 12.255 7.51805 13.1631C7.47733 14.0733 7.46667 14.3643 7.46667 16.6819C7.46667 18.9994 7.47698 19.2894 7.51822 20.1996C7.56 21.108 7.70383 21.7281 7.91467 22.2707C8.13281 22.832 8.42437 23.3081 8.89886 23.7824C9.373 24.257 9.84909 24.5493 10.41 24.7673C10.9529 24.9783 11.5732 25.1221 12.4815 25.1637C13.3917 25.2051 13.6824 25.2153 15.9997 25.2153C18.3174 25.2153 18.6074 25.2051 19.5176 25.1637C20.4261 25.1221 21.0469 24.9783 21.5898 24.7673C22.1509 24.5493 22.6263 24.257 23.1004 23.7824C23.5751 23.3081 23.8667 22.832 24.0853 22.2709C24.2951 21.7281 24.4391 21.1079 24.4818 20.1998C24.5227 19.2895 24.5333 18.9994 24.5333 16.6819C24.5333 14.3643 24.5227 14.0735 24.4818 13.1632C24.4391 12.2548 24.2951 11.6347 24.0853 11.0921C23.8667 10.5309 23.5751 10.0548 23.1004 9.58045C22.6258 9.10578 22.1511 8.81422 21.5893 8.59644C21.0453 8.38542 20.4248 8.24159 19.5164 8.19999C18.6062 8.15857 18.3164 8.14844 15.9981 8.14844H16.0008ZM15.2352 9.68621C15.4624 9.68585 15.716 9.68621 16.0008 9.68621C18.2792 9.68621 18.5492 9.69439 19.449 9.73527C20.281 9.77332 20.7325 9.91234 21.0333 10.0291C21.4316 10.1838 21.7155 10.3687 22.014 10.6674C22.3127 10.966 22.4975 11.2505 22.6526 11.6487C22.7694 11.9492 22.9086 12.4007 22.9464 13.2327C22.9873 14.1323 22.9962 14.4025 22.9962 16.6799C22.9962 18.9572 22.9873 19.2275 22.9464 20.127C22.9084 20.959 22.7694 21.4106 22.6526 21.711C22.4979 22.1093 22.3127 22.3928 22.014 22.6913C21.7153 22.99 21.4318 23.1749 21.0333 23.3295C20.7329 23.4469 20.281 23.5856 19.449 23.6236C18.5494 23.6645 18.2792 23.6734 16.0008 23.6734C13.7222 23.6734 13.4521 23.6645 12.5526 23.6236C11.7205 23.5852 11.269 23.4462 10.968 23.3294C10.5698 23.1747 10.2853 22.9898 9.98666 22.6911C9.68799 22.3925 9.5031 22.1087 9.34807 21.7103C9.23127 21.4099 9.09207 20.9583 9.0542 20.1263C9.01331 19.2268 9.00514 18.9565 9.00514 16.6777C9.00514 14.399 9.01331 14.1302 9.0542 13.2306C9.09225 12.3986 9.23127 11.947 9.34807 11.6462C9.50274 11.248 9.68799 10.9636 9.98666 10.6649C10.2853 10.3662 10.5698 10.1813 10.968 10.0263C11.2688 9.90897 11.7205 9.7703 12.5526 9.73207C13.3398 9.69652 13.6448 9.68585 15.2352 9.68407V9.68621ZM20.5558 11.1031C19.9905 11.1031 19.5318 11.5613 19.5318 12.1268C19.5318 12.6921 19.9905 13.1508 20.5558 13.1508C21.1212 13.1508 21.5798 12.6921 21.5798 12.1268C21.5798 11.5614 21.1212 11.1031 20.5558 11.1031ZM16.0008 12.2996C13.5807 12.2996 11.6185 14.2617 11.6185 16.6818C11.6185 19.102 13.5807 21.0632 16.0008 21.0632C18.4209 21.0632 20.3824 19.102 20.3824 16.6818C20.3824 14.2617 18.4209 12.2996 16.0008 12.2996ZM16.0008 13.8374C17.5716 13.8374 18.8453 15.1108 18.8453 16.6818C18.8453 18.2527 17.5716 19.5263 16.0008 19.5263C14.4297 19.5263 13.1563 18.2527 13.1563 16.6818C13.1563 15.1108 14.4297 13.8374 16.0008 13.8374Z" fill="white"/>
</svg>
