<svg width="80" height="80" viewBox="0 0 80 80" fill="none" xmlns="http://www.w3.org/2000/svg">
<rect width="80" height="80" rx="40" fill="#ECECEC"/>
<path d="M45.1875 49.8855L37.3 52.4342L43.0767 70.3109C43.3634 71.1982 44.487 71.4684 45.1457 70.8085L49.8334 66.1129C50.1169 65.8289 50.5199 65.6987 50.916 65.7631L57.465 66.8276C58.3854 66.9773 59.1384 66.1007 58.8517 65.2134L53.075 47.3367L45.1875 49.8855Z" fill="#8D99AE"/>
<path d="M37.3458 49.8637L45.2333 52.4125L39.4566 70.2892C39.1699 71.1765 38.0464 71.4467 37.3876 70.7867L32.6999 66.0912C32.4164 65.8072 32.0134 65.677 31.6173 65.7413L25.0683 66.8059C24.1479 66.9556 23.3949 66.079 23.6816 65.1917L29.4583 47.315L37.3458 49.8637Z" fill="#8D99AE"/>
<path d="M63.5 32.198C63.5 44.9006 53.2026 55.198 40.5 55.198C27.7975 55.198 17.5 44.9006 17.5 32.198C17.5 19.4955 27.7975 9.198 40.5 9.198C53.2026 9.198 63.5 19.4955 63.5 32.198Z" fill="white" stroke="#8D99AE" stroke-width="3"/>
<path d="M26.1589 26.5225H24.2732C23.6637 26.5225 23.1696 27.0166 23.1696 27.6261C23.1696 28.2356 23.6637 28.7297 24.2732 28.7297H25.0553V36.449C25.0553 37.0585 25.5494 37.5526 26.1589 37.5526C26.7684 37.5526 27.2625 37.0585 27.2625 36.449V27.6261C27.2625 27.0164 26.7684 26.5225 26.1589 26.5225Z" fill="#D90429"/>
<path d="M54.0305 25.9067C53.4689 25.6709 52.8217 25.9351 52.5858 26.4972L48.2939 36.7236C48.058 37.2856 48.3225 37.9325 48.8846 38.1683C49.0241 38.2269 49.1689 38.2546 49.3112 38.2546C49.7423 38.2546 50.152 38.0003 50.3293 37.5777L54.6212 27.3512C54.8569 26.7894 54.5925 26.1425 54.0305 25.9067Z" fill="#D90429"/>
<path d="M48.6138 29.443C49.3855 29.1232 49.7517 28.2383 49.4319 27.4667C49.112 26.6951 48.2272 26.3288 47.4555 26.6486C46.6839 26.9685 46.3176 27.8533 46.6375 28.625C46.9573 29.3966 47.8422 29.7629 48.6138 29.443Z" fill="#D90429"/>
<path d="M54.8938 37.5302C55.7289 37.5302 56.4059 36.8532 56.4059 36.0181C56.4059 35.183 55.7289 34.506 54.8938 34.506C54.0587 34.506 53.3817 35.183 53.3817 36.0181C53.3817 36.8532 54.0587 37.5302 54.8938 37.5302Z" fill="#D90429"/>
<path d="M32.3184 26.3424C30.303 26.3424 28.6633 27.9821 28.6633 29.9975V34.0778C28.6633 36.0931 30.303 37.7328 32.3184 37.7328C34.3337 37.7328 35.9733 36.0931 35.9733 34.0778V29.9975C35.9734 27.9819 34.3337 26.3424 32.3184 26.3424ZM33.7662 34.0778C33.7662 34.876 33.1167 35.5256 32.3185 35.5256C31.5202 35.5256 30.8707 34.876 30.8707 34.0778V29.9975C30.8707 29.1992 31.5202 28.5496 32.3185 28.5496C33.1168 28.5496 33.7662 29.1992 33.7662 29.9975V34.0778Z" fill="#D90429"/>
<path d="M41.1052 26.3424C39.0899 26.3424 37.4502 27.9821 37.4502 29.9975V34.0778C37.4502 36.0931 39.0899 37.7328 41.1052 37.7328C43.1205 37.7328 44.7601 36.0931 44.7601 34.0778V29.9975C44.7601 27.9819 43.1205 26.3424 41.1052 26.3424ZM42.5529 34.0778C42.5529 34.876 41.9035 35.5256 41.1052 35.5256C40.307 35.5256 39.6574 34.876 39.6574 34.0778V29.9975C39.6574 29.1992 40.307 28.5496 41.1052 28.5496C41.9035 28.5496 42.5529 29.1992 42.5529 29.9975V34.0778Z" fill="#D90429"/>
</svg>
