<svg width="80" height="80" viewBox="0 0 80 80" fill="none" xmlns="http://www.w3.org/2000/svg">
<rect width="80" height="80" rx="40" fill="#EADFD8"/>
<path d="M45.1875 49.8854L37.3 52.4341L43.0767 70.3109C43.3634 71.1982 44.487 71.4684 45.1457 70.8084L49.8334 66.1128C50.1169 65.8288 50.5199 65.6986 50.916 65.763L57.465 66.8276C58.3854 66.9772 59.1384 66.1007 58.8517 65.2134L53.075 47.3367L45.1875 49.8854Z" fill="#8D99AE"/>
<path d="M37.3457 49.8637L45.2332 52.4125L39.4566 70.2892C39.1699 71.1765 38.0463 71.4467 37.3876 70.7867L32.6999 66.0912C32.4164 65.8072 32.0134 65.677 31.6173 65.7413L25.0683 66.8059C24.1479 66.9556 23.3949 66.079 23.6816 65.1917L29.4582 47.315L37.3457 49.8637Z" fill="#8D99AE"/>
<path d="M63.5 32.1979C63.5 44.9005 53.2026 55.1979 40.5 55.1979C27.7975 55.1979 17.5 44.9005 17.5 32.1979C17.5 19.4954 27.7975 9.19794 40.5 9.19794C53.2026 9.19794 63.5 19.4954 63.5 32.1979Z" fill="white" stroke="#8D99AE" stroke-width="3"/>
<path d="M26.1589 26.5225H24.2732C23.6637 26.5225 23.1696 27.0166 23.1696 27.6261C23.1696 28.2356 23.6637 28.7297 24.2732 28.7297H25.0553V36.449C25.0553 37.0585 25.5494 37.5526 26.1589 37.5526C26.7684 37.5526 27.2625 37.0585 27.2625 36.449V27.6261C27.2625 27.0164 26.7684 26.5225 26.1589 26.5225Z" fill="#D90429"/>
<path d="M54.0306 25.9067C53.4689 25.6709 52.8217 25.9351 52.5859 26.4972L48.2939 36.7236C48.0581 37.2856 48.3225 37.9325 48.8846 38.1683C49.0241 38.2269 49.1689 38.2546 49.3112 38.2546C49.7423 38.2546 50.152 38.0003 50.3293 37.5777L54.6212 27.3512C54.857 26.7894 54.5925 26.1425 54.0306 25.9067Z" fill="#D90429"/>
<path d="M48.6139 29.443C49.3855 29.1232 49.7518 28.2383 49.4319 27.4667C49.1121 26.6951 48.2272 26.3288 47.4556 26.6486C46.684 26.9685 46.3177 27.8533 46.6375 28.625C46.9574 29.3966 47.8422 29.7629 48.6139 29.443Z" fill="#D90429"/>
<path d="M54.8939 37.5301C55.729 37.5301 56.406 36.8531 56.406 36.018C56.406 35.1829 55.729 34.5059 54.8939 34.5059C54.0587 34.5059 53.3817 35.1829 53.3817 36.018C53.3817 36.8531 54.0587 37.5301 54.8939 37.5301Z" fill="#D90429"/>
<path d="M32.3184 26.3424C30.303 26.3424 28.6634 27.9821 28.6634 29.9975V34.0778C28.6634 36.0931 30.303 37.7328 32.3184 37.7328C34.3338 37.7328 35.9733 36.0931 35.9733 34.0778V29.9975C35.9735 27.9819 34.3338 26.3424 32.3184 26.3424ZM33.7662 34.0778C33.7662 34.876 33.1167 35.5256 32.3186 35.5256C31.5203 35.5256 30.8708 34.876 30.8708 34.0778V29.9975C30.8708 29.1992 31.5203 28.5496 32.3186 28.5496C33.1168 28.5496 33.7662 29.1992 33.7662 29.9975V34.0778Z" fill="#D90429"/>
<path d="M41.1053 26.3424C39.0899 26.3424 37.4502 27.9821 37.4502 29.9975V34.0778C37.4502 36.0931 39.0899 37.7328 41.1053 37.7328C43.1205 37.7328 44.7602 36.0931 44.7602 34.0778V29.9975C44.7602 27.9819 43.1205 26.3424 41.1053 26.3424ZM42.5529 34.0778C42.5529 34.876 41.9036 35.5256 41.1053 35.5256C40.307 35.5256 39.6575 34.876 39.6575 34.0778V29.9975C39.6575 29.1992 40.307 28.5496 41.1053 28.5496C41.9036 28.5496 42.5529 29.1992 42.5529 29.9975V34.0778Z" fill="#D90429"/>
</svg>
