<svg width="24" height="12" viewBox="0 0 24 12" fill="none" xmlns="http://www.w3.org/2000/svg">
<path d="M1.33333 12C0.955556 12 0.639111 11.904 0.384 11.712C0.128 11.5207 0 11.2833 0 11C0 10.7167 0.128 10.4793 0.384 10.288C0.639111 10.096 0.955556 10 1.33333 10H22.6667C23.0444 10 23.3609 10.096 23.616 10.288C23.872 10.4793 24 10.7167 24 11C24 11.2833 23.872 11.5207 23.616 11.712C23.3609 11.904 23.0444 12 22.6667 12H1.33333ZM1.33333 7C0.955556 7 0.639111 6.904 0.384 6.712C0.128 6.52067 0 6.28333 0 6C0 5.71667 0.128 5.479 0.384 5.287C0.639111 5.09567 0.955556 5 1.33333 5H22.6667C23.0444 5 23.3609 5.09567 23.616 5.287C23.872 5.479 24 5.71667 24 6C24 6.28333 23.872 6.52067 23.616 6.712C23.3609 6.904 23.0444 7 22.6667 7H1.33333ZM1.33333 2C0.955556 2 0.639111 1.90433 0.384 1.713C0.128 1.521 0 1.28333 0 1C0 0.716667 0.128 0.479 0.384 0.287C0.639111 0.0956668 0.955556 0 1.33333 0H22.6667C23.0444 0 23.3609 0.0956668 23.616 0.287C23.872 0.479 24 0.716667 24 1C24 1.28333 23.872 1.521 23.616 1.713C23.3609 1.90433 23.0444 2 22.6667 2H1.33333Z" fill="#2B2D42"/>
</svg>
