<svg width="32" height="33" viewBox="0 0 32 33" fill="none" xmlns="http://www.w3.org/2000/svg">
<path opacity="0.1" fill-rule="evenodd" clip-rule="evenodd" d="M0 16.6816C0 7.84509 7.16344 0.681641 16 0.681641C24.8366 0.681641 32 7.84509 32 16.6816C32 25.5182 24.8366 32.6816 16 32.6816C7.16344 32.6816 0 25.5182 0 16.6816Z" fill="white"/>
<path fill-rule="evenodd" clip-rule="evenodd" d="M15.5208 13.6867L15.5544 14.2404L14.9948 14.1726C12.9579 13.9127 11.1784 13.0314 9.66756 11.5513L8.92891 10.8169L8.73865 11.3592C8.33575 12.5682 8.59316 13.8449 9.43253 14.7036C9.8802 15.1782 9.77948 15.246 9.00725 14.9635C8.73865 14.8731 8.50363 14.8053 8.48124 14.8392C8.4029 14.9183 8.6715 15.9465 8.88414 16.3532C9.17513 16.9182 9.76828 17.4718 10.4174 17.7995L10.9658 18.0593L10.3167 18.0706C9.68994 18.0706 9.66756 18.0819 9.73471 18.3192C9.95854 19.0536 10.8427 19.8332 11.8276 20.1722L12.5214 20.4095L11.9171 20.771C11.0218 21.2908 9.96973 21.5845 8.91772 21.6071C8.41409 21.6184 8 21.6636 8 21.6975C8 21.8105 9.36538 22.4432 10.16 22.6918C12.5438 23.4262 15.3753 23.1099 17.5017 21.8557C19.0126 20.9631 20.5235 19.1892 21.2286 17.4718C21.6091 16.5566 21.9896 14.8844 21.9896 14.0822C21.9896 13.5625 22.0232 13.4947 22.6499 12.8732C23.0192 12.5117 23.3662 12.1162 23.4333 12.0032C23.5452 11.7886 23.534 11.7886 22.9633 11.9806C22.012 12.3196 21.8777 12.2744 22.3477 11.766C22.6947 11.4044 23.1088 10.7491 23.1088 10.557C23.1088 10.5231 22.9409 10.5796 22.7506 10.6813C22.5492 10.7943 22.1015 10.9638 21.7658 11.0654L21.1614 11.2575L20.613 10.8847C20.3108 10.6813 19.8856 10.4553 19.6617 10.3875C19.0909 10.2293 18.218 10.2519 17.7032 10.4327C16.3042 10.9412 15.4201 12.2518 15.5208 13.6867Z" fill="white"/>
</svg>
