<svg width="32" height="33" viewBox="0 0 32 33" fill="none" xmlns="http://www.w3.org/2000/svg">
<path opacity="0.1" fill-rule="evenodd" clip-rule="evenodd" d="M0 16.6816C0 7.84509 7.16344 0.681641 16 0.681641C24.8366 0.681641 32 7.84509 32 16.6816C32 25.5182 24.8366 32.6816 16 32.6816C7.16344 32.6816 0 25.5182 0 16.6816Z" fill="white"/>
<path fill-rule="evenodd" clip-rule="evenodd" d="M22.6677 11.1812C23.4021 11.3827 23.9804 11.9764 24.1767 12.7304C24.5333 14.097 24.5333 16.9483 24.5333 16.9483C24.5333 16.9483 24.5333 19.7995 24.1767 21.1661C23.9804 21.9201 23.4021 22.5139 22.6677 22.7155C21.3369 23.0816 16 23.0816 16 23.0816C16 23.0816 10.6631 23.0816 9.33218 22.7155C8.59783 22.5139 8.0195 21.9201 7.82323 21.1661C7.46667 19.7995 7.46667 16.9483 7.46667 16.9483C7.46667 16.9483 7.46667 14.097 7.82323 12.7304C8.0195 11.9764 8.59783 11.3827 9.33218 11.1812C10.6631 10.8149 16 10.8149 16 10.8149C16 10.8149 21.3369 10.8149 22.6677 11.1812ZM14.4 14.5482V19.8816L18.6667 17.215L14.4 14.5482Z" fill="white"/>
</svg>
